# xmcd
#
# Track frame offsets: 
#        150
#        24838
#        47857
#        65937
#        80306
#        93708
#        110895
#        131802
#        147106
#        166510
#        187011
#        205288
#        221397
#
# Disc length: 3133 seconds
#
# Revision: 2
# Processed by: cddbd v1.5.1PL0 Copyright (c) Steve Scherf et al.
# Submitted via: ExactAudioCopy v0.95a5
#
DISCID=bf0c3b0d
DTITLE=Various Artist - In christ alone
DYEAR=1900
DGENRE=
TTITLE0=In Christ Alone
TTITLE1=Come Unto Me
TTITLE2=Your'e The Word Of God The Father
TTITLE3=Your Hand O God Has Guided
TTITLE4=Jesus Ever Abiding Friend
TTITLE5=From The Squalor Of A Borrowed Stable
TTITLE6=Jesus Draw Me Ever Nearer
TTITLE7=O For A Closer Walk With God
TTITLE8=My Hope Rests Firm
TTITLE9=When Love Came Down To Earth
TTITLE10=King Of The Ages Almighty God
TTITLE11=Father We Have Sinned
TTITLE12=O Breath Of God
EXTD=
EXTT0=
EXTT1=
EXTT2=
EXTT3=
EXTT4=
EXTT5=
EXTT6=
EXTT7=
EXTT8=
EXTT9=
EXTT10=
EXTT11=
EXTT12=
PLAYORDER=
